<svg xmlns="http://www.w3.org/2000/svg" viewBox="0 0 882.5 386.4"><path d="M54.5,297.9c4.1-13.8,7.4-27.9,12.6-41.3,16.2-41.4,40.3-78.3,67.2-113.5,31.8-41.6,67.2-79.6,109.6-110.8C260,20.4,277,10.1,295.7,2.8c2.2-.9,4.3-1.5,7.9-2.8-2.7,9.3-4.6,17.6-7.5,25.6-13.6,38.9-33.7,74.6-55.8,109.1-33.8,52.7-71.8,102.1-117,145.7-22.8,21.9-48.6,39.3-78.9,49.6-2.4.8-4.7,2.8-6.5,4.7-9.1,9.9-18,20-26.6,31.4,5.8-.6,11.7-.9,17.5-1.9,29-5.2,55.7-17,82.9-27.8,17.7-7,35.6-13.6,53.6-20a45.4,45.4,0,0,1,13.7-2c10-.3,13.4,4.5,10.2,14-1.5,4.5-3.9,8.8-6.3,14.2,7.2-.8,13.5-1.8,19.8-2.3,14.7-1.3,29.3-2.6,44-3.4,6.7-.4,12.4,1.4,13.3,9.9.5,5.1,4.4,8.3,9.3,9.1,13.6,2.3,27.3,4.3,41,6.2,3.3.4,6.7,0,11.2,0-15.5,4-44.1,2.3-57.6-3.2-5.4-2.2-9.8-5.3-11.8-11.4-.6-1.8-4.1-3.8-6.2-3.8-10.2.2-20.6.2-30.6,1.8-12.7,2-25,5.6-37.6,8-2.9.6-6.2-.9-9.3-1.5.7-3.1,1.1-6.3,2.3-9.2s3.9-5.6,5.1-8.6,1.4-6.7,2-10c-3.4-.3-6.9-1.2-10.2-.7a76.3,76.3,0,0,0-13.9,4.1c-29.8,10.8-59.4,22-89.4,32.4C43.8,367.2,22.8,371.9,0,371.2c11.4-14.7,22.4-29.2,33.7-43.4a17.7,17.7,0,0,1,7.5-5.5C97.8,299,138.6,257,173.9,209.2c24.1-32.6,45.6-67,68.2-100.7a5.9,5.9,0,0,0,.5-1.9l-21.3,10.2-.6-1.1c8.3-5.5,16.7-11,24.9-16.6,2.2-1.5,4.7-3.2,5.9-5.5,14.5-26.5,28.7-53.2,43-79.8a15.7,15.7,0,0,0,.8-3.1c-4.2,2.5-7.6,4.4-10.8,6.5-35.8,22.2-67,49.9-96.2,80C151.1,135.6,118,177,90.5,222.8c-14.3,23.9-26.7,48.6-33.6,75.7Z" transform="translate(0 0)" style="fill:#4fd1c5"/><path d="M68.5,295.6c49.7-85.5,110.8-162.3,180.7-232C184.1,137.2,121.7,212.9,68.5,295.6Z" transform="translate(0 0)" style="fill:#4fd1c5"/><path d="M467.5,237.2c-1.6,2.4-4.8,8-9.7,17s-11.4,21.5-19.6,37.6l5.4.8a329.8,329.8,0,0,0,32.3-15.5,269.3,269.3,0,0,0,28.6-18.6q27.4-20.4,32.5-36c1-2.9,2-4.3,3.2-4.3s.9.7.9,2.1a11,11,0,0,1-.2,1.8c-2.2,12.5-11.8,25.8-28.8,39.7s-34.5,23.7-56.7,33c24.5,4.9,44.9,12,61,21.4C539,329.5,550.3,346,550.3,366a57.8,57.8,0,0,1-2.4,16.5c-.8,2.6-1.9,3.9-3.5,3.9s-1.5-.6-1.5-2a6.5,6.5,0,0,1,.4-2,39.6,39.6,0,0,0,1.6-11.3c0-17.1-11.4-32.3-34.3-45.4-19.4-11.1-43.4-19.4-72.1-24.6l-3.3,1.2-3.2,1.1c-4.9,9-9.4,17-13.7,23.9s-8.4,13-12.2,18.1a52,52,0,0,0,30.1,9.3c7.7,0,13-1.9,15.6-5.7q.6-.9,1.5,0c.7.6.9,1.2.5,1.7-2.9,4.1-8.6,6.2-16.9,6.2a56.2,56.2,0,0,1-32-9.6c-12.5,16.1-23.9,24.2-34.4,24.3a25.6,25.6,0,0,1-9.9-1.4,23.2,23.2,0,0,1-8.1-4.9,24.4,24.4,0,0,1-7.3-17.4c0-.7.1-1.5.1-2.2l.3-2.2c.4-2.1,1.4-3.2,3.2-3.2s1.4.6,1.4,1.9-.3,2.1-.5,3.1a11.5,11.5,0,0,0-.6,3.7c0,4.8,2.2,9,6.5,12.6s9.2,4.6,15.3,4q13.1-1.5,28.2-22.5a83.3,83.3,0,0,1-8.5-8.3l-3.8,4.4c-1.5,1.7-3.4,3.7-5.6,5.9-5.3,5.7-8.5,8.5-9.6,8.5s-1.7-.5-1.7-1.5.2-.3.5-.5a101.3,101.3,0,0,0,9.7-8.8,104.9,104.9,0,0,0,8.8-10,97.6,97.6,0,0,1-11.2-17.2l-5.5.3a45.1,45.1,0,0,1-5.2-.1c-6.3-.2-11.4-1.5-15.5-3.8s-6.1-5.1-6.1-8.1c0-6.1,7.5-10.6,22.5-13.4-3.1-11.7-4.6-22.3-4.2-31.7.7-16.1,5-29,12.7-38.9S391.1,207,400.2,207c7.4,0,13.4,3,18.2,9.1s8,15.3,8,26.9-3.5,27.8-10.4,46.3a93.9,93.9,0,0,1,11.9,1l7.9-17.9c2.9-6.7,6.3-14.3,9.9-22.8s5.4-11.8,5.6-11.8c3.1-4.4,7.5-6.7,13.2-7,2.7,0,4.1,1,4.1,2.9A6.3,6.3,0,0,1,467.5,237.2Zm-97.9,59.1-1.7.3a15.4,15.4,0,0,0-7.4,2.9c-2,1.5-2.9,3.1-2.9,4.7,0,3.1,2.9,4.7,8.6,5a58.9,58.9,0,0,0,8.4,0A118.6,118.6,0,0,1,369.6,296.3Zm42.5-7.4c6.5-17.9,9.7-33.1,9.7-45.6,0-10.6-2.2-19.1-6.7-25.3s-9.1-8.4-15.3-8.4-14.5,4.1-20.4,12.3-10.4,21.9-11.1,37.3a109,109,0,0,0,3.5,30.6A194,194,0,0,1,412.1,288.9Zm-2.5,7c-7.4-.6-14-1-20-1s-10.8.3-16.2.8c.7,2.3,1.4,4.6,2.2,6.8s1.7,4.4,2.7,6.5c3.1-.3,6.8-.8,11.4-1.5l16.2-3.1c.6-1.4,1.2-2.8,1.9-4.2Zm-19,34.7c2.1-2.9,4.2-5.9,6.1-8.9s3.8-6.4,5.5-9.7l-10.9,2.2c-3.5.6-6.9,1-10.1,1.3A90.7,90.7,0,0,0,390.6,330.6Zm9.9,10.6a119.5,119.5,0,0,0,9.4-14.8c3.1-5.6,6.4-11.9,9.8-18.9l-6.8,1.8-6.6,1.8a131.8,131.8,0,0,1-6.8,11.4c-2.4,3.7-4.8,7.1-7.3,10.3A94.1,94.1,0,0,0,400.5,341.2Zm9.5-37.5q11.1-2.4,11.1-5.1c0-1.2-2.6-2-7.8-2.3-.5,1.2-1,2.4-1.6,3.6S410.6,302.4,410,303.7Z" transform="translate(0 0)" style="fill:#4fd1c5"/><path d="M617.7,323.9c-7.1,14.1-10.6,25.1-10.6,33,0,6.2,2.4,9.3,7.4,9.3,7.7,0,17.5-6.4,29.2-19,1.2-1.2,2.1-1.8,2.8-1.8s.9.5.9,1.4a3.1,3.1,0,0,1-1.3,2.5q-21.3,22.9-36.5,21.4-3.9-.1-7.2-4.2a15.9,15.9,0,0,1-3.9-11.2,28.3,28.3,0,0,1,1-7.1c-9,10.7-16,17.2-20.9,19.6a18.7,18.7,0,0,1-7.7,2c-5.7,0-8.5-3.2-8.5-9.6s3.5-16.5,10.4-28.9c1.2-2.2,3.7-3.3,7.7-3.3,2.4,0,3.2.9,2.5,2.6a53,53,0,0,1-3,5.7c-1.1,1.9-2,3.7-3,5.7q-5.4,10.7-5.4,16.2t3.3,6.9c5.2,0,11.3-4.9,18.5-14.6a113.7,113.7,0,0,0,14.8-26.6c1.3-1.7,3.7-2.6,7.2-2.6q2.7,0,2.7,1.5A3.6,3.6,0,0,1,617.7,323.9Z" transform="translate(0 0)" style="fill:#4fd1c5"/><path d="M668,320.6a27.6,27.6,0,0,0,.6,4,20.7,20.7,0,0,0,1,4.3c2-2.8,4.1-5.6,6.3-8.3a97.2,97.2,0,0,1,6.7-7.7c5.9-6.2,11.5-9.2,16.8-9.2a9,9,0,0,1,6.6,2.5,8.2,8.2,0,0,1,2.6,6.3,10.4,10.4,0,0,1-1.1,4.6c-.7,1.6-1.7,2.4-2.7,2.4s-2.1-1-2.3-3.1a6.7,6.7,0,0,0-6.2-5.4c-3.5,0-10.8,3.7-17.2,11l-4.5,5.4a39.9,39.9,0,0,0-4,5.2,57.7,57.7,0,0,0,11.5,21.2c5.7,6.5,12,9.7,18.8,9.7a24.9,24.9,0,0,0,10.7-2.7c5.3-2.6,10.9-7.1,16.7-13.5,1.2-1.2,2.2-1.9,3-1.9a1.4,1.4,0,0,1,.9,1.4,4.1,4.1,0,0,1-.9,2.3,82.2,82.2,0,0,1-18.6,14.1c-8.4,4.7-15.3,7-20.9,7s-10.9-2.8-16.2-8.5a64.2,64.2,0,0,1-12-18.4,106,106,0,0,0-6.2,12.1c-2.1,4.8-4.4,10.5-6.8,17a9.7,9.7,0,0,1-4.7,1.5c-3.7,0-5.5-2.6-5.5-7.9a9.6,9.6,0,0,1,.7-4.1q2.9-8.8,7.5-21c3.1-8,6.8-17.2,11.1-27.5q16.8-39.7,27.9-55.8c6.1-9.2,12.8-13.7,19.9-13.7,5.3,0,8,3.1,8,9.4a32.5,32.5,0,0,1-1.7,9.2C708.4,279.1,693.1,298.4,668,320.6ZM662.2,340a55,55,0,0,1-2.3-7.2c-5.7,12.4-9.1,22.5-10,30.4A205.8,205.8,0,0,1,662.2,340Zm45.5-78.2a22.9,22.9,0,0,0,2.2-8.9c0-3.1-1.1-4.6-3.2-4.6s-7.1,3.6-11.4,10.9c-5.4,9.5-10.5,19.1-15.2,28.8s-9.2,19.7-13.3,30c3.9-3.9,7.8-8.1,11.6-12.4s7.7-9.1,11.4-14,8-11.1,11-16A88.9,88.9,0,0,0,707.7,261.8Z" transform="translate(0 0)" style="fill:#4fd1c5"/><path d="M782.1,323.9c-7.1,14.1-10.6,25.1-10.6,33,0,6.2,2.4,9.3,7.4,9.3,7.7,0,17.5-6.4,29.2-19,1.2-1.2,2.1-1.8,2.8-1.8s.9.5.9,1.4a3,3,0,0,1-1.2,2.5q-21.5,22.9-36.6,21.4-3.9-.1-7.2-4.2a15.9,15.9,0,0,1-3.9-11.2,33.8,33.8,0,0,1,1-7.1c-9,10.7-16,17.2-20.9,19.6a18.7,18.7,0,0,1-7.7,2c-5.7,0-8.5-3.2-8.5-9.6s3.5-16.5,10.4-28.9c1.2-2.2,3.8-3.3,7.7-3.3s3.2.9,2.5,2.6a53,53,0,0,1-3,5.7c-1.1,1.9-2,3.7-3,5.7q-5.4,10.7-5.4,16.2t3.3,6.9c5.2,0,11.3-4.9,18.5-14.6a113.7,113.7,0,0,0,14.8-26.6c1.3-1.7,3.7-2.6,7.2-2.6q2.7,0,2.7,1.5A3.6,3.6,0,0,1,782.1,323.9Z" transform="translate(0 0)" style="fill:#4fd1c5"/><path d="M808.1,369.3a2.6,2.6,0,0,1-2.6,1.8,5.1,5.1,0,0,1-3.4-1.7c-1-1.2-1.4-2.2-1.2-3.1s2-4.5,3.5-7.8,3.3-7.6,5.3-12.4c5.2-12,7.8-19.2,7.8-21.8.4-.7,2.4-2,5.9-3.7s5.9-1.4,5.9,1.4q-3.9,12-16.2,37.5l14.6-15.8c5.3-5.5,10.8-11.5,16.7-18,2.7-3,4.9-4.6,6.5-4.6s1.2.7,1.2,1.9a9.3,9.3,0,0,1-.5,2.9c-4.1,14.1-6.2,23.9-6.2,29.5s2.2,10,6.7,10,9.5-2.2,15-6.6l4.5-4.3c2-1.9,4.5-4.5,7.5-7.5.9-.9,1.6-1.4,2.2-1.4s.9.4,1.1,1.2a2.1,2.1,0,0,1-.5,2c-12.6,13.8-23.6,20.7-33.2,20.7s-12.9-6.7-12.9-20.2a78.8,78.8,0,0,1,.5-9.7c-1.6,1.4-3.5,3.3-5.8,5.5s-5,4.8-8.2,7.7l-4.5,4.5c-1.4,1.5-2.7,3-4,4.6s-1.9,2.4-2.8,3.7Z" transform="translate(0 0)" style="fill:#4fd1c5"/></svg>