<svg xmlns="http://www.w3.org/2000/svg" viewBox="0 0 656 737.1"><path d="M205,401.8c1.4-4.4,2.4-8.8,4-13.1,5.2-13.2,12.9-24.9,21.4-36.1,10.1-13.2,21.4-25.3,34.9-35.2a72,72,0,0,1,16.4-9.4l2.5-.9c-.8,3-1.4,5.6-2.3,8.2-4.4,12.3-10.8,23.7-17.8,34.7-10.8,16.7-22.8,32.4-37.2,46.2A66.1,66.1,0,0,1,201.8,412a6.2,6.2,0,0,0-2,1.5c-2.9,3.2-5.8,6.4-8.5,10l5.6-.6c9.2-1.7,17.7-5.4,26.3-8.8,5.6-2.2,11.4-4.4,17.1-6.4a15.5,15.5,0,0,1,4.3-.7q4.8,0,3.3,4.5c-.5,1.4-1.3,2.8-2.1,4.5,2.3-.2,4.3-.6,6.4-.7l13.9-1.1c2.2-.1,4,.4,4.3,3.2a3.2,3.2,0,0,0,2.9,2.9l13,1.9a21.6,21.6,0,0,0,3.6,0c-4.9,1.3-14,.7-18.3-1a6.2,6.2,0,0,1-3.8-3.6c-.1-.6-1.2-1.2-1.9-1.2-3.3.1-6.6.1-9.7.5s-8,1.8-12,2.6c-.9.2-2-.3-3-.5a24.5,24.5,0,0,1,.8-2.9c.4-.9,1.2-1.8,1.6-2.7a18,18,0,0,0,.6-3.2,17.3,17.3,0,0,0-3.2-.3,22.5,22.5,0,0,0-4.4,1.4c-9.5,3.4-18.9,7-28.4,10.2a56.4,56.4,0,0,1-20.5,3.6l10.7-13.8a5.6,5.6,0,0,1,2.4-1.7c18-7.4,31-20.8,42.2-36,7.7-10.3,14.5-21.3,21.7-32V341l-6.8,3.3v-.4l7.9-5.3a5.2,5.2,0,0,0,1.9-1.7l13.6-25.4.3-1-3.4,2.1c-11.4,7.1-21.3,15.8-30.6,25.4a217.4,217.4,0,0,0-31.1,39.9c-4.6,7.6-8.5,15.5-10.7,24.1Z" style="fill:#4fd1c5"/><path d="M209.5,401.1a357,357,0,0,1,57.4-73.7C246.2,350.8,226.4,374.8,209.5,401.1Z" style="fill:#4fd1c5"/><path d="M336.3,382.5l-3.1,5.4-6.2,12,1.7.2a97.1,97.1,0,0,0,10.3-4.9,78.7,78.7,0,0,0,9.1-5.9c5.8-4.3,9.2-8.2,10.3-11.5.3-.9.7-1.3,1-1.3s.3.2.3.6v.6c-.7,4-3.8,8.2-9.2,12.7a69,69,0,0,1-18,10.4c7.7,1.6,14.3,3.8,19.3,6.8,7.3,4.3,10.9,9.5,10.9,15.9a15.4,15.4,0,0,1-.9,5.2c-.2.8-.5,1.2-1,1.2s-.5-.1-.5-.6a1.3,1.3,0,0,1,.1-.6,9,9,0,0,0,.5-3.6c0-5.4-3.6-10.3-10.9-14.4a73.1,73.1,0,0,0-22.9-7.9l-1,.4-1.1.4c-1.5,2.9-3,5.4-4.3,7.6a61.9,61.9,0,0,1-3.9,5.7,16.5,16.5,0,0,0,9.6,3c2.4,0,4.1-.6,4.9-1.8s.3-.2.5,0,.3.3.1.5-2.7,2-5.3,2a17.8,17.8,0,0,1-10.2-3.1c-3.9,5.1-7.6,7.7-10.9,7.7a8.8,8.8,0,0,1-3.2-.4,6.4,6.4,0,0,1-2.5-1.5,8,8,0,0,1-2.4-5.6c0-.2.1-.5.1-.7v-.7c.1-.6.4-1,1-1s.4.2.4.6a3.1,3.1,0,0,1-.1,1,2.5,2.5,0,0,0-.2,1.2,5.4,5.4,0,0,0,2,4,6.4,6.4,0,0,0,4.9,1.3q4.2-.6,9-7.2a22.3,22.3,0,0,1-2.7-2.6l-1.3,1.4-1.7,1.8c-1.7,1.9-2.7,2.7-3.1,2.7s-.5-.1-.5-.5,0,0,.2-.1l3.1-2.8a41.5,41.5,0,0,0,2.7-3.2,38.4,38.4,0,0,1-3.5-5.4h-3.4a9.5,9.5,0,0,1-4.9-1.3c-1.4-.7-2-1.6-2-2.5s2.4-3.4,7.1-4.3a38.3,38.3,0,0,1-1.3-10.1c.2-5.1,1.6-9.2,4.1-12.3s4.6-4.1,7.5-4.1a6.8,6.8,0,0,1,5.8,2.8,13.6,13.6,0,0,1,2.6,8.6c0,3.7-1.2,8.8-3.3,14.7l3.8.3,2.5-5.6c.9-2.2,1.9-4.6,3.1-7.3a17.3,17.3,0,0,1,1.8-3.8,5.1,5.1,0,0,1,4.2-2.1q1.2,0,1.2.9A1.4,1.4,0,0,1,336.3,382.5Zm-31.1,18.8h-.6a5,5,0,0,0-2.3.9,2,2,0,0,0-.9,1.5c0,1,.9,1.5,2.7,1.6a12.2,12.2,0,0,0,2.7,0c-.6-1.3-1.1-2.7-1.6-4.1Zm13.5-2.3a43.5,43.5,0,0,0,3.1-14.5c0-4-.7-6.1-2.1-8.1a5.7,5.7,0,0,0-4.9-2.6,8.6,8.6,0,0,0-6.5,3.9c-1.9,2.6-3.3,6.9-3.5,11.8a34.8,34.8,0,0,0,1.1,9.7,60.8,60.8,0,0,1,12.8-.2Zm-.8,2.2-6.3-.3a42.7,42.7,0,0,0-5.2.2,14.2,14.2,0,0,0,.7,2.2,12.1,12.1,0,0,0,.9,2l3.6-.4,5.1-1,.6-1.3Zm-6,11c.6-.9,1.3-1.8,1.9-2.8a31.4,31.4,0,0,0,1.8-3.1l-3.5.7-3.2.4A24.1,24.1,0,0,0,311.9,412.2Zm3.1,3.4a46.6,46.6,0,0,0,3-4.7c1-1.8,2.1-3.8,3.1-6l-2.2.5-2.1.6a27.1,27.1,0,0,1-2.1,3.7,37.1,37.1,0,0,1-2.3,3.2A22.3,22.3,0,0,0,315,415.6Zm3-11.9c2.4-.6,3.6-1.1,3.6-1.6s-.8-.7-2.5-.8a11.7,11.7,0,0,1-.5,1.1Z" style="fill:#4fd1c5"/><path d="M384.1,410.1c-2.3,4.5-3.4,8-3.4,10.5s.7,2.9,2.3,2.9,5.6-2,9.3-6q.6-.6.9-.6c.2,0,.3.2.3.5a1.2,1.2,0,0,1-.4.8c-4.6,4.8-8.4,7.1-11.6,6.8a3.1,3.1,0,0,1-2.3-1.4A4.7,4.7,0,0,1,378,420a8.3,8.3,0,0,1,.3-2.2c-2.9,3.4-5.1,5.5-6.7,6.3a6.5,6.5,0,0,1-2.4.6c-1.8,0-2.7-1.1-2.7-3.1s1.1-5.2,3.3-9.1c.3-.7,1.1-1.1,2.4-1.1s1,.3.8.8a11.1,11.1,0,0,1-.9,1.9,9.5,9.5,0,0,0-1,1.7,13.8,13.8,0,0,0-1.7,5.2c0,1.2.4,1.9,1.1,2.2s3.5-1.6,5.8-4.6a37.8,37.8,0,0,0,4.8-8.5,2.5,2.5,0,0,1,2.2-.9c1.1,0,.9.2.9.5S384.1,410,384.1,410.1Z" style="fill:#4fd1c5"/><path d="M400.1,409a5.3,5.3,0,0,0,.1,1.3l.3,1.4,2.1-2.7a24.1,24.1,0,0,1,2.1-2.4c1.9-2,3.7-2.9,5.3-2.9a2.4,2.4,0,0,1,2.1.8,2.2,2.2,0,0,1,.8,2,2.2,2.2,0,0,1-.3,1.4,1.2,1.2,0,0,1-.9.8c-.3,0-.6-.3-.7-1a2,2,0,0,0-2-1.7c-1.1,0-3.4,1.2-5.4,3.5l-1.5,1.7a10.4,10.4,0,0,0-1.2,1.7,18.2,18.2,0,0,0,3.6,6.7c1.9,2.1,3.8,3.1,6,3.1a6.7,6.7,0,0,0,3.4-.9,18.2,18.2,0,0,0,5.3-4.3,1.7,1.7,0,0,1,1-.6.4.4,0,0,1,.2.5,1.9,1.9,0,0,1-.2.7,26.2,26.2,0,0,1-6,4.5,13.8,13.8,0,0,1-6.6,2.2c-1.8,0-3.4-.9-5.1-2.7a20.1,20.1,0,0,1-3.8-5.8,27.5,27.5,0,0,0-2,3.8c-.7,1.5-1.4,3.3-2.2,5.4a3.3,3.3,0,0,1-1.5.5c-1.1,0-1.7-.9-1.7-2.5a2.7,2.7,0,0,1,.2-1.3c.6-1.9,1.4-4.1,2.4-6.7s2.1-5.5,3.5-8.8c3.6-8.4,6.5-14.3,8.9-17.7s4-4.3,6.3-4.3,2.5.9,2.5,2.9a10.5,10.5,0,0,1-.5,3C412.9,395.9,408,402,400.1,409Zm-1.9,6.2a20.2,20.2,0,0,1-.7-2.3,35.9,35.9,0,0,0-3.2,9.7A65.1,65.1,0,0,1,398.2,415.2Zm14.5-24.8a9.5,9.5,0,0,0,.7-2.9c0-.9-.4-1.4-1-1.4s-2.3,1.1-3.7,3.4-3.3,6.1-4.8,9.2-2.9,6.3-4.2,9.5l3.7-3.9q1.8-2.1,3.6-4.5c1.1-1.5,2.5-3.5,3.5-5.1A34.8,34.8,0,0,0,412.7,390.4Z" style="fill:#4fd1c5"/><path d="M436.3,410.1q-3.3,6.8-3.3,10.5c0,2.5.7,2.9,2.3,2.9s5.6-2,9.3-6a1.5,1.5,0,0,1,.9-.6c.2,0,.2.2.2.5a.8.8,0,0,1-.3.8c-4.6,4.8-8.5,7.1-11.6,6.8a3,3,0,0,1-2.3-1.4,4.6,4.6,0,0,1-1.3-3.6,5.7,5.7,0,0,1,.4-2.2c-2.9,3.4-5.1,5.5-6.7,6.3a7.1,7.1,0,0,1-2.4.6c-1.9,0-2.8-1.1-2.8-3.1s1.2-5.2,3.3-9.1a2.7,2.7,0,0,1,2.5-1.1c1.2,0,1,.3.8.8l-1,1.9-.9,1.7a13.8,13.8,0,0,0-1.7,5.2c0,1.2.3,1.9,1,2.2s3.6-1.6,5.9-4.6a39.2,39.2,0,0,0,4.7-8.5,2.9,2.9,0,0,1,2.3-.9c1.1,0,.8.2.8.5S436.4,410,436.3,410.1Z" style="fill:#4fd1c5"/><path d="M444.6,424.5a.8.8,0,0,1-.8.6,1.4,1.4,0,0,1-1.2-.6,1.4,1.4,0,0,1-.3-.9c.1-.3.6-1.5,1.1-2.5s1.1-2.4,1.7-3.9c1.7-3.9,2.5-6.1,2.5-7s.7-.6,1.8-1.2,1.9-.4,1.9.5a105,105,0,0,1-5.1,11.9l4.6-5,5.3-5.7q1.3-1.5,2.1-1.5c.4,0,.4.2.4.6l-.2.9c-1.3,4.5-1.9,7.6-1.9,9.4s.6,3.2,2.1,3.2a8.2,8.2,0,0,0,4.8-2.1l1.3-1.4,2.5-2.4c.2-.2.4-.4.6-.4s.3.1.4.4a.7.7,0,0,1-.1.6c-4,4.4-7.6,6.6-10.6,6.6s-4.1-2.1-4.1-6.4a10.6,10.6,0,0,1,.2-3.1,13.7,13.7,0,0,0-1.9,1.7l-2.6,2.5-1.4,1.4-1.3,1.5-.9,1.2Z" style="fill:#4fd1c5"/><path d="M328,47.7,605.9,208.1V529L328,689.4,50.1,529V208.1ZM81.3,226.1V461.8L285.4,108.3ZM328,96.8,92.7,504.4H563.3ZM532.1,535.6H123.9L328,653.4Zm42.6-73.8L370.6,108.3,574.7,226.1Z" style="fill:#e10098;fill-rule:evenodd"/><circle cx="328" cy="65.7" r="65.7" style="fill:#e10098"/><circle cx="590.3" cy="217.1" r="65.7" style="fill:#e10098"/><circle cx="590.3" cy="520" r="65.7" style="fill:#e10098"/><circle cx="328" cy="671.4" r="65.7" style="fill:#e10098"/><circle cx="65.7" cy="520" r="65.7" style="fill:#e10098"/><circle cx="65.7" cy="217.1" r="65.7" style="fill:#e10098"/></svg>