<svg xmlns="http://www.w3.org/2000/svg" xmlns:xlink="http://www.w3.org/1999/xlink" viewBox="0 0 589.8 361.2"><defs><clipPath id="a" transform="translate(0 0)"><path d="M214.3,83.5l-56.2,32.4a6.7,6.7,0,0,0-3.4,5.8v64.9a6.7,6.7,0,0,0,3.4,5.9L214.3,225a6.9,6.9,0,0,0,6.8,0l56.2-32.5a6.6,6.6,0,0,0,3.3-5.9V121.7a6.5,6.5,0,0,0-3.4-5.8L221.1,83.5a6.1,6.1,0,0,0-3.4-1,5.9,5.9,0,0,0-3.4,1" style="fill:none"/></clipPath><linearGradient id="b" x1="-664.09" y1="728.54" x2="-662.49" y2="728.54" gradientTransform="matrix(-50.75, 103.54, 103.54, 50.75, -108876.51, 31853.62)" gradientUnits="userSpaceOnUse"><stop offset="0.3" stop-color="#3e863d"/><stop offset="0.5" stop-color="#55934f"/><stop offset="0.8" stop-color="#5aad45"/></linearGradient><clipPath id="c" transform="translate(0 0)"><path d="M156.1,190.8a6.5,6.5,0,0,0,2,1.7l48.2,27.8,8,4.7a6.7,6.7,0,0,0,3.9.8l1.4-.2,59.2-108.5a4.8,4.8,0,0,0-1.6-1.2L240.5,94.6,221,83.4l-1.7-.7Z" style="fill:none"/></clipPath><linearGradient id="d" x1="-662.64" y1="718.15" x2="-661.6" y2="718.15" gradientTransform="matrix(142.41, -105.22, -105.22, -142.41, 170074.03, 32754.47)" gradientUnits="userSpaceOnUse"><stop offset="0.57" stop-color="#3e863d"/><stop offset="0.72" stop-color="#619857"/><stop offset="1" stop-color="#76ac64"/></linearGradient><clipPath id="e" transform="translate(0 0)"><path d="M217,82.6a6.6,6.6,0,0,0-2.7.9l-56,32.3,60.4,110a6.8,6.8,0,0,0,2.4-.8l56.2-32.5a7.1,7.1,0,0,0,3.3-4.6L219,82.7h-2" style="fill:none"/></clipPath><linearGradient id="f" x1="-658.85" y1="719.24" x2="-657.9" y2="719.24" gradientTransform="matrix(129.89, 0, 0, -129.89, 85735.11, 93576.11)" gradientUnits="userSpaceOnUse"><stop offset="0.16" stop-color="#6bbf47"/><stop offset="0.38" stop-color="#79b461"/><stop offset="0.47" stop-color="#75ac64"/><stop offset="0.7" stop-color="#659e5a"/><stop offset="0.9" stop-color="#3e863d"/></linearGradient></defs><path d="M291.5,361.2a11.2,11.2,0,0,1-5.6-1.5l-17.7-10.5c-2.7-1.5-1.4-2-.5-2.3a33.2,33.2,0,0,0,8-3.7,1.5,1.5,0,0,1,1.3.1l13.7,8.1a1.7,1.7,0,0,0,1.7,0l53.2-30.7a1.7,1.7,0,0,0,.8-1.4V257.8a1.8,1.8,0,0,0-.8-1.5l-53.2-30.7a1.7,1.7,0,0,0-1.7,0l-53.2,30.7a1.9,1.9,0,0,0-.9,1.5v61.4a1.9,1.9,0,0,0,.9,1.5l14.6,8.4c7.9,4,12.7-.7,12.7-5.4V263a1.6,1.6,0,0,1,1.6-1.5h6.7a1.5,1.5,0,0,1,1.5,1.5v60.7c0,10.6-5.7,16.6-15.7,16.6-3.1,0-5.5,0-12.3-3.3l-14-8a11.5,11.5,0,0,1-5.6-9.8V257.8a11.2,11.2,0,0,1,5.6-9.7l53.3-30.8a11.7,11.7,0,0,1,11.2,0l53.3,30.8a11.3,11.3,0,0,1,5.6,9.7v61.5a11.5,11.5,0,0,1-5.6,9.7l-53.3,30.7a10.9,10.9,0,0,1-5.6,1.5" transform="translate(0 0)" style="fill:#689f63"/><path d="M308,318.9c-23.3,0-28.2-10.7-28.2-19.7a1.5,1.5,0,0,1,1.5-1.5h6.9a1.4,1.4,0,0,1,1.5,1.3c1.1,7,4.2,10.5,18.3,10.5,11.2,0,16-2.5,16-8.5,0-3.4-1.4-5.9-18.8-7.6-14.6-1.5-23.6-4.7-23.6-16.4s9-17.1,24.2-17.1c17.1,0,25.5,5.9,26.6,18.6a1.6,1.6,0,0,1-.4,1.2,1.7,1.7,0,0,1-1.2.5h-6.9a1.6,1.6,0,0,1-1.5-1.2c-1.6-7.4-5.7-9.7-16.6-9.7s-13.7,4.2-13.7,7.4,1.7,5.1,18.2,7.2,24.2,5.3,24.2,16.8-9.7,18.2-26.6,18.2m64.9-65.1h1.8a1.6,1.6,0,0,0,1.7-1.7c0-1.5-1.1-1.5-1.7-1.5h-1.8Zm-2.2-5.1h4c1.3,0,4,0,4,3.1a2.7,2.7,0,0,1-2.2,2.8c1.6.1,1.7,1.1,1.9,2.6a11.3,11.3,0,0,0,.6,3h-2.4c-.1-.5-.4-3.4-.4-3.6s-.4-1-1.2-1h-2.1v4.7h-2.2Zm-4.7,5.8a8.6,8.6,0,0,0,8.5,8.6,8.8,8.8,0,0,0,8.7-8.6,8.7,8.7,0,0,0-17.3-.1m18.9.1a10.3,10.3,0,0,1-20.5,0,10.3,10.3,0,1,1,20.5,0" transform="translate(0 0)" style="fill:#689f63"/><path d="M126.6,120.7a6.8,6.8,0,0,0-3.4-5.9L66.7,82.3a8.5,8.5,0,0,0-3.1-.9H63a8.5,8.5,0,0,0-3.1.9L3.4,114.8A6.8,6.8,0,0,0,0,120.7v87.6a3.4,3.4,0,0,0,1.7,2.9,3.4,3.4,0,0,0,3.4,0L38.8,192a7,7,0,0,0,3.4-5.9V145.2a6.7,6.7,0,0,1,3.4-5.9L59.9,131a6.9,6.9,0,0,1,3.4-.9,6.7,6.7,0,0,1,3.4.9L81,139.3a6.7,6.7,0,0,1,3.4,5.9v40.9a7,7,0,0,0,3.4,5.9l33.6,19.2a3.4,3.4,0,0,0,3.4,0,3.5,3.5,0,0,0,1.7-3Zm266.5,45.6a1.9,1.9,0,0,1-.9,1.5L372.8,179a1.7,1.7,0,0,1-1.7,0l-19.4-11.2a1.8,1.8,0,0,1-.8-1.5V143.9a1.8,1.8,0,0,1,.8-1.5l19.4-11.2a1.7,1.7,0,0,1,1.7,0l19.4,11.2a1.9,1.9,0,0,1,.9,1.5ZM398.3.4a3.5,3.5,0,0,0-5.1,3V90.1a2.2,2.2,0,0,1-1.2,2,2,2,0,0,1-2.3,0L375.5,84a6.9,6.9,0,0,0-6.8,0l-56.5,32.6a6.8,6.8,0,0,0-3.4,5.9v65.2a6.7,6.7,0,0,0,3.4,5.9l56.5,32.7a6.9,6.9,0,0,0,6.8,0L432,193.6a6.7,6.7,0,0,0,3.4-5.9V25.2a6.8,6.8,0,0,0-3.5-6ZM586.4,143.3a6.8,6.8,0,0,0,3.4-5.9V121.6a6.8,6.8,0,0,0-3.4-5.9L530.3,83.1a6.9,6.9,0,0,0-6.8,0L467,115.7a7,7,0,0,0-3.4,5.9v65.2a6.9,6.9,0,0,0,3.4,6l56.1,32a6.9,6.9,0,0,0,6.7,0l34-18.9a3.4,3.4,0,0,0,1.7-2.9,3.3,3.3,0,0,0-1.7-3L507,167.4a3.5,3.5,0,0,1-1.8-3V144a3.5,3.5,0,0,1,1.8-3l17.6-10.2a3.4,3.4,0,0,1,3.4,0L545.7,141a3.4,3.4,0,0,1,1.7,3v16.1a3.4,3.4,0,0,0,1.7,2.9,3.6,3.6,0,0,0,3.5,0Z" transform="translate(0 0)" style="fill:#333;fill-rule:evenodd"/><path d="M526.1,140.3a1.1,1.1,0,0,1,1.3,0l10.8,6.2a1.5,1.5,0,0,1,.7,1.2v12.5a1.4,1.4,0,0,1-.7,1.1l-10.8,6.3a1.5,1.5,0,0,1-1.3,0l-10.9-6.3a1.3,1.3,0,0,1-.6-1.1V147.7a1.4,1.4,0,0,1,.6-1.2Z" transform="translate(0 0)" style="fill:#689f63;fill-rule:evenodd"/><g style="clip-path:url(#a)"><path d="M337.4,110.4,179.1,32.8,98,198.3l158.2,77.6Z" transform="translate(0 0)" style="fill:url(#b)"/></g><g style="clip-path:url(#c)"><path d="M87.7,133.3,199.5,284.6,347.3,175.4,235.5,24.1Z" transform="translate(0 0)" style="fill:url(#d)"/></g><g style="clip-path:url(#e)"><path d="M158.3,82.6V225.8H280.5V82.6Z" transform="translate(0 0)" style="fill:url(#f)"/></g></svg>